# xmcd CD database file generated by OrangeCD 4.2
#
# Track frame offsets:
#	150
#	12655
#	22224
#	33404
#	47356
#	60371
#	69583
#	84297
#	94316
#	108440
#	121679
#	136999
#	149111
#	161325
#	173274
#	183793
#
# Disc length: 2596 seconds
#
# Revision: 0
# Processed by: cddbd v1.4PL0 Copyright (c) Steve Scherf et al.
# Submitted via: OrangeCD 4.2
#
DISCID=cb0a2210
DTITLE=Little Walter - The Essential Little Walter [CD3]
DYEAR=1900
DGENRE=Blues
TTITLE0=Last Night
TTITLE1=Nobody But You
TTITLE2=My Baby Is Sweeter
TTITLE3=Take Me Back
TTITLE4=Everybody Needs Somebody
TTITLE5=I Had My Fun
TTITLE6=Blue Light
TTITLE7=Evans Shuffle
TTITLE8=Rocker
TTITLE9=One More Chance With You
TTITLE10=Crazy Legs
TTITLE11=Temperature
TTITLE12=I Got To Go
TTITLE13=The Toddle
TTITLE14=Rock Bottom
TTITLE15=Mean Old Frisco
EXTD=
EXTT0=
EXTT1=
EXTT2=
EXTT3=
EXTT4=
EXTT5=
EXTT6=
EXTT7=
EXTT8=
EXTT9=
EXTT10=
EXTT11=
EXTT12=
EXTT13=
EXTT14=
EXTT15=
PLAYORDER=
